<?xml version="1.0" encoding="utf-8"?>
<!-- Generator: Adobe Illustrator 24.2.1, SVG Export Plug-In . SVG Version: 6.00 Build 0)  -->
<svg version="1.1" id="Layer_1" xmlns="http://www.w3.org/2000/svg" xmlns:xlink="http://www.w3.org/1999/xlink" x="0px" y="0px"
	 viewBox="0 0 727.1 145.5" style="enable-background:new 0 0 727.1 145.5;" xml:space="preserve">
<style type="text/css">
	.st0{fill:#231F20;}
</style>
<path class="st0" d="M59.9,54.3V35.4c0-1.4,0-2.8,0.5-3.9v-0.3H45.6v0.3C50,33.1,50,37.7,50,41.9v12.9c-3.3,1.4-7.8,2.1-12.3,2.1
	c-16.5,0-26.8-9-26.8-26c0-14.1,9.1-24.5,25.7-24.5c10.5,0,15.9,2.9,18.2,4.9h0.3V2c-5-1-11.1-1.9-16.2-1.9c-24.6,0-39,12.7-39,32
	c0,18.5,13.8,31.3,38.4,31.3c7.8,0,17.8-2.1,23.5-3.7v-0.4C60.3,58.2,59.9,56.4,59.9,54.3"/>
<path class="st0" d="M337.8,54.3V35.4c0-1.4,0-2.8,0.5-3.9v-0.3h-14.7v0.3c4.3,1.6,4.4,6.1,4.4,10.4v12.9c-3.3,1.4-7.8,2.1-12.3,2.1
	c-16.5,0-26.8-9-26.8-26c0-14.1,9.1-24.5,25.7-24.5c10.5,0,15.9,2.9,18.2,4.9h0.3V2c-5-1-11.1-1.9-16.2-1.9c-24.6,0-39,12.7-39,32
	c0,18.5,13.8,31.3,38.4,31.3c7.8,0,17.8-2.1,23.5-3.7v-0.4C338.2,58.2,337.8,56.4,337.8,54.3"/>
<path class="st0" d="M168.1,0c-20.1-0.5-36.1,12.9-36.1,31.6c0,19,14.7,31.9,35.2,31.9c20.4,0,35.4-13.2,35.4-32.3
	C202.5,14.6,188.3-0.1,168.1,0 M167.6,56.8c-15,0-24.7-9.7-24.7-26.1c0-17.2,11-24.1,24.5-24.1c13.9,0,24.2,8.7,24.2,26.3
	C191.6,48.9,182.4,56.8,167.6,56.8"/>
<path class="st0" d="M275.7,61.5c-5.6-2.6-11.7-7.8-15.6-12.4l-12.6-15.8c8.3-2.2,13.6-8.2,13.6-16.3c0-8.3-7.5-15.5-20.4-15.5h-24
	v0.3c2.1,1.3,2.8,3.7,2.8,7.9v44.7c0,4.1-0.4,5.8-2.6,7.3V62h15v-0.2c-2-1.3-2.6-3.5-2.6-7.7V7c0,0,3.4,0,7.2,0
	c9,0,14.8,4.2,14.8,11.2c0,7.5-4.1,13.2-15.5,14.9l18.9,24.3c2.9,3.4,6.1,4.6,11.2,4.6h9.8V61.5z"/>
<path class="st0" d="M384.5,1.8c1.8,1.2,2.5,2.6,2.5,6.8v52.2c0,9-2.9,15.1-8.2,18.4v0.3c14.2-1.5,18-13.9,18-23.6V9
	c0-4.2,0.4-6.1,2-7.1V1.6h-14.4V1.8z"/>
<path class="st0" d="M522.7,1.8c1.6,0.9,3,1.5,3,6.6v39.2L492.8,5.8c0,0-2.4-3-2.8-4.1V1.6h-15.8v0.3c1.9,0.8,3.6,2.2,3.6,6.4v43.2
	c0,7.7-0.3,8.8-2.5,10.3V62h13.1v-0.3c-2.2-1.5-2.8-2.4-2.8-10.3V11.7L521.4,57c3.9,5,6.2,6.8,12.2,7.9V9.3c0-5.1,0.2-6,2.1-7.4V1.6
	h-13V1.8z"/>
<path class="st0" d="M714.1,1.6v0.3c1.6,0.9,3,1.5,3,6.6v39.2L684.2,5.8c0,0-2.4-3.1-2.8-4.1V1.6h-15.8v0.3c1.9,0.8,3.6,2.2,3.6,6.4
	v43.2c0,7.7-0.3,8.8-2.5,10.3V62h13.1v-0.3c-2.2-1.5-2.9-2.4-2.9-10.3V11.7L712.7,57c3.9,5,6.2,6.8,12.2,7.9V9.3
	c0-5.1,0.2-6,2.1-7.4V1.6H714.1z"/>
<path class="st0" d="M562.9,15.4c-0.4-5.9,4.9-9.3,11.7-9.3c6.3,0,10.3,2.5,13,5.2h0.3l0-8.1c-3.7-1.7-7.3-2.8-12.4-3.1
	c-12.4-0.6-21.9,5-21.9,16.1c0,19.5,30.9,18.1,30.9,31.6c0,5.9-6.7,9.2-13.8,9c-6-0.2-12.8-2.5-18.4-9.4l-0.4,0l1.5,11.4
	c3.9,2.8,11.7,5.1,18.5,5.1c12.1,0,22.4-5.7,22.4-17.9C594.4,28.5,563.6,27,562.9,15.4"/>
<path class="st0" d="M443,55l-12.2,0V32.8h10.5c5.3,0,7.2,1.1,7.7,1.9h0.3v-8.9h-18.5V8.3c0,0,9,0.1,12.4,0.1c6.9,0,10,1,11.4,2.4
	h0.3l-1.1-9.2h-35.5v0.3c2.3,1.4,2.8,3.1,2.8,7.3v44.9c0,4.1-0.2,5.9-2.4,7.6V62h38.2l3.5-10.6H460C457.1,53.7,453.4,55,443,55"/>
<path class="st0" d="M104.5,55l-12.3,0V32.8h10.5c5.3,0,7.3,1.1,7.7,1.9h0.3v-8.9H92.3V8.3c0,0,9,0.1,12.4,0.1c6.8,0,10,1,11.3,2.4
	h0.3l-1.1-9.2H79.7v0.3c2.3,1.4,2.7,3.1,2.7,7.3v44.9c0,4.1-0.2,5.9-2.4,7.6V62h38.2l3.4-10.6h-0.3C118.6,53.7,114.9,55,104.5,55"/>
<path class="st0" d="M634.9,55l-12.2,0V32.8h10.5c5.3,0,7.3,1.1,7.7,1.9h0.3v-8.9h-18.5V8.3c0,0,9,0.1,12.4,0.1c6.8,0,10,1,11.3,2.4
	h0.3l-1.1-9.2h-35.4v0.3c2.3,1.4,2.7,3.1,2.7,7.3v44.9c0,4.1-0.2,5.9-2.3,7.6V62h38.2l3.4-10.6h-0.3C649,53.7,645.2,55,634.9,55"/>
<polygon class="st0" points="238.4,137.2 244.5,137.2 244.5,135.8 238.4,135.8 238.4,130.1 245.1,130.1 245.1,128.7 237,128.7 
	237,144.8 245.4,144.8 245.4,143.5 238.4,143.5 "/>
<path class="st0" d="M259.8,137.2c-0.7-0.5-1.5-0.9-2.3-1.2c-0.5-0.2-1-0.4-1.4-0.7c-0.4-0.2-0.8-0.4-1.1-0.6
	c-0.7-0.5-1.1-1.3-1.1-2.1c0-1.7,1.4-2.9,3.2-2.9c1.1,0,2.1,0.4,2.8,1.1c0.1,0.1,0.3,0.3,0.5,0.6l1-0.9c-0.5-0.7-0.7-0.9-1.2-1.2
	c-0.8-0.5-2-0.9-3.1-0.9c-2.7,0-4.7,1.9-4.7,4.3c0,1.3,0.6,2.5,1.7,3.2c0.5,0.4,1.2,0.7,2,1l0.7,0.3c1.1,0.5,1.7,0.8,2.2,1.2
	c0.7,0.5,1.1,1.3,1.1,2.2c0,1.8-1.5,3.2-3.5,3.2c-1.5,0-2.7-0.6-3.7-2l-1.1,1c0.6,0.6,0.9,0.9,1.4,1.2c0.4,0.3,0.9,0.6,1.5,0.8
	c0.6,0.2,1.2,0.3,1.8,0.3c2.9,0,5.1-2,5.1-4.5C261.5,139.3,260.9,138,259.8,137.2"/>
<polygon class="st0" points="266.7,130.1 271.8,130.1 271.8,144.8 273.3,144.8 273.3,130.1 278.4,130.1 278.4,128.7 266.7,128.7 "/>
<path class="st0" d="M288.8,128.7l-6.4,16.1h1.6l2-5.1h6.8l2.1,5.1h1.7l-6.5-16.1H288.8z M286.5,138.3l2.9-7.5l2.9,7.5H286.5z"/>
<path class="st0" d="M309.6,136.3c1.8-0.5,3-1.7,3-3.7c0-1.9-1.1-3.3-2.8-3.7c-0.9-0.2-1.3-0.2-3-0.2h-3.3v16.1h3.3
	c2.5,0,3.5-0.2,4.7-1c1.2-0.9,1.9-2.2,1.9-3.7C313.4,137.7,311.7,136.5,309.6,136.3 M304.9,129.9h1.1c2.4,0,2.8,0.1,3.5,0.3
	c1,0.4,1.6,1.3,1.6,2.5c0,2.1-1.8,3.2-3.9,3.2h-2.3V129.9z M310.6,142.8c-0.9,0.7-1.7,0.8-4.5,0.8h-1.2v-6.5h2.9
	c2.6,0,4.1,1.1,4.1,3.1C311.9,141.2,311.5,142.2,310.6,142.8"/>
<polygon class="st0" points="322.7,128.7 321.2,128.7 321.2,144.8 328.6,144.8 328.6,143.5 322.7,143.5 "/>
<polygon class="st0" points="336.3,128.7 336.3,136.8 336.3,144.8 337,144.8 337.8,144.8 337.8,136.8 337.8,128.7 337,128.7 "/>
<path class="st0" d="M353.9,137.2c-0.7-0.5-1.5-0.9-2.3-1.2c-0.5-0.2-1-0.4-1.4-0.7c-0.4-0.2-0.8-0.4-1.1-0.6
	c-0.7-0.5-1.1-1.3-1.1-2.1c0-1.7,1.3-2.9,3.2-2.9c1.1,0,2.1,0.4,2.8,1.1c0.1,0.1,0.3,0.3,0.5,0.6l1-0.9c-0.5-0.7-0.7-0.9-1.2-1.2
	c-0.8-0.5-2-0.9-3.1-0.9c-2.6,0-4.7,1.9-4.7,4.3c0,1.3,0.6,2.5,1.7,3.2c0.5,0.4,1.2,0.7,2,1l0.7,0.3c1.1,0.5,1.7,0.8,2.2,1.2
	c0.7,0.5,1,1.3,1,2.2c0,1.8-1.5,3.2-3.5,3.2c-1.5,0-2.7-0.6-3.7-2l-1.1,1c0.6,0.6,0.9,0.9,1.4,1.2c0.5,0.3,1,0.6,1.5,0.8
	c0.6,0.2,1.2,0.3,1.8,0.3c2.9,0,5.1-2,5.1-4.5C355.6,139.3,355,138,353.9,137.2"/>
<polygon class="st0" points="374.4,135.8 365.1,135.8 365.1,128.7 363.6,128.7 363.6,144.8 365.1,144.8 365.1,137.2 374.4,137.2 
	374.4,144.8 375.9,144.8 375.9,128.7 374.4,128.7 "/>
<polygon class="st0" points="386.6,137.2 392.7,137.2 392.7,135.8 386.6,135.8 386.6,130.1 393.3,130.1 393.3,128.7 385.2,128.7 
	385.2,144.8 393.6,144.8 393.6,143.5 386.6,143.5 "/>
<path class="st0" d="M410,129.3c-1.2-0.4-2.4-0.6-4.6-0.6h-3.7v16.1h4.3c2.3,0,3.6-0.3,5.1-1.2c2.4-1.5,3.8-4.1,3.8-6.9
	C414.9,133.3,412.9,130.2,410,129.3 M409.8,142.7c-1.3,0.7-2.2,0.9-4.7,0.9h-1.9v-13.7h2c2.3,0,3.7,0.2,4.9,0.9
	c2.2,1.2,3.3,3.5,3.3,5.9C413.3,139.2,412,141.5,409.8,142.7"/>
<polygon class="st0" points="432.2,133.5 433,134.6 437.9,130.7 437.9,144.8 439.4,144.8 439.4,128.7 438.3,128.7 "/>
<path class="st0" d="M452,128.5c-2.9,0-5,2.2-5,5.2c0,2.8,2,4.8,4.6,4.8c0.8,0,1.8-0.3,2.4-0.6c0.1-0.1,0.3-0.2,0.6-0.4
	c-0.5,0.8-0.6,1.1-1.2,1.8c-0.6,0.8-1.5,1.8-2.6,3.2l-1.8,2.2l1.2,0.9l1.1-1.3c1.4-1.7,2.7-3.4,3.9-5.3c1.2-1.9,1.8-3.6,1.8-5.2
	C457,130.6,455,128.5,452,128.5 M452.1,137.2c-2.2,0-3.6-1.4-3.6-3.6c0-2.3,1.4-3.8,3.5-3.8c2.1,0,3.6,1.5,3.6,3.8
	C455.6,135.9,454.3,137.2,452.1,137.2"/>
<path class="st0" d="M468.4,128.6c-3.3,0-5.2,3-5.2,8.3c0,5.3,1.8,8.3,5.2,8.3c3.3,0,5.2-3,5.2-8.3
	C473.6,131.5,471.7,128.6,468.4,128.6 M468.4,143.8c-2.4,0-3.6-2.6-3.6-7c0-4.4,1.2-7,3.6-7c2.4,0,3.6,2.6,3.6,7
	C472.1,141.2,470.8,143.8,468.4,143.8"/>
<path class="st0" d="M488.5,128.7h-1.2l-7.8,11.5v1.1h7.6v3.7h1.4v-3.7h2.4v-1.1h-2.4V128.7z M487.1,140.1h-6l6-9V140.1z"/>
</svg>
